<svg width="96" height="96" viewBox="0 0 96 96" fill="none" xmlns="http://www.w3.org/2000/svg">
  <defs>
    <linearGradient id="bg" x1="12" y1="8" x2="84" y2="88" gradientUnits="userSpaceOnUse">
      <stop stop-color="#E7EEFF" />
      <stop offset="1" stop-color="#C9D8FF" />
    </linearGradient>
    <linearGradient id="shirt" x1="16" y1="52" x2="80" y2="92" gradientUnits="userSpaceOnUse">
      <stop stop-color="#2F5DD1" />
      <stop offset="1" stop-color="#1F47AE" />
    </linearGradient>
  </defs>
  <circle cx="48" cy="48" r="46" fill="url(#bg)" />
  <path d="M18 84C18 68.536 30.536 56 46 56H50C65.464 56 78 68.536 78 84V92H18V84Z" fill="url(#shirt)" />
  <circle cx="48" cy="36" r="16" fill="#FFD8B5" />
  <path d="M32 34C32 25.164 39.164 18 48 18C56.836 18 64 25.164 64 34V36H32V34Z" fill="#11142D" />
  <circle cx="42" cy="36" r="1.8" fill="#11142D" />
  <circle cx="54" cy="36" r="1.8" fill="#11142D" />
  <path d="M44 42C45.2 43.6 46.8 44.4 48.4 44.4C50 44.4 51.6 43.6 52.8 42" stroke="#11142D" stroke-width="1.8" stroke-linecap="round" />
</svg>
